<svg id="Calque_1" data-name="Calque 1" xmlns="http://www.w3.org/2000/svg" viewBox="0 0 219.63 216.42"><title>favicon</title><path d="M557.28,394.62a38.41,38.41,0,0,1,11.65,28.19v59.08a39.93,39.93,0,0,1-39.84,39.94H470a40.08,40.08,0,0,1-39.93-39.94V422.81A39.91,39.91,0,0,1,470,383h59.08A38.39,38.39,0,0,1,557.28,394.62Zm-6.35,28.19A21.68,21.68,0,0,0,529.09,401H470a21.85,21.85,0,0,0-21.94,21.84v59.08a21,21,0,0,0,6.45,15.5A21.38,21.38,0,0,0,470,503.83h59.08a21.53,21.53,0,0,0,15.49-6.44,21.28,21.28,0,0,0,6.35-15.5Z" transform="translate(-389.6 -343.24)"/><path d="M540.85,431.85A21,21,0,0,1,541,434a22.34,22.34,0,1,1-22.33-22.33,22,22,0,0,1,2.93.21,45.93,45.93,0,1,0-21.92,86.3,46,46,0,0,0,41.21-66.29Z" transform="translate(-389.6 -343.24)"/><ellipse cx="402.11" cy="394.76" rx="17.01" ry="4.82" transform="translate(-550.97 56.72) rotate(-45)"/><ellipse cx="441.12" cy="355.74" rx="17.01" ry="4.82" transform="translate(-511.95 72.88) rotate(-45)"/><path d="M428.12,368.75a9.2,9.2,0,1,0-6.61,15.69l16.91,16.91a6.57,6.57,0,1,0,9.29-9.29L430.8,375.15A9.13,9.13,0,0,0,428.12,368.75Z" transform="translate(-389.6 -343.24)"/><ellipse cx="596.73" cy="394.76" rx="4.82" ry="17.01" transform="translate(-493.96 194.33) rotate(-45)"/><ellipse cx="557.71" cy="355.74" rx="4.82" ry="17.01" transform="translate(-477.8 155.32) rotate(-45)"/><path d="M570.72,368.75a9.19,9.19,0,1,1,6.6,15.69l-16.91,16.91a6.57,6.57,0,1,1-9.29-9.29L568,375.15A9.18,9.18,0,0,1,570.72,368.75Z" transform="translate(-389.6 -343.24)"/><ellipse cx="402.11" cy="508.14" rx="4.82" ry="17.01" transform="translate(-631.14 89.92) rotate(-45)"/><ellipse cx="441.12" cy="547.15" rx="4.82" ry="17.01" transform="translate(-647.3 128.94) rotate(-45)"/><path d="M428.12,534.15a9.2,9.2,0,1,1-6.61-15.69l16.91-16.91a6.57,6.57,0,0,1,9.29,9.29L430.8,527.75A9.13,9.13,0,0,1,428.12,534.15Z" transform="translate(-389.6 -343.24)"/><ellipse cx="596.73" cy="508.14" rx="17.01" ry="4.82" transform="translate(-574.13 227.54) rotate(-45)"/><ellipse cx="557.71" cy="547.15" rx="17.01" ry="4.82" transform="translate(-613.15 211.38) rotate(-45)"/><path d="M570.72,534.15a9.2,9.2,0,1,0,6.6-15.69l-16.91-16.91a6.57,6.57,0,0,0-9.29,9.29L568,527.75A9.18,9.18,0,0,0,570.72,534.15Z" transform="translate(-389.6 -343.24)"/></svg>